<svg width="131" height="80" viewBox="0 0 131 80" fill="none" xmlns="http://www.w3.org/2000/svg">
<path d="M131 40C131 17.9086 112.833 -7.80984e-07 90.4239 -1.74438e-06L40.5761 -3.88735e-06C18.1665 -4.85075e-06 -7.9594e-07 17.9086 -1.77778e-06 40C-2.75962e-06 62.0914 18.1665 80 40.5761 80L90.4239 80C112.833 80 131 62.0914 131 40ZM49.5022 40C49.5022 31.2936 56.6682 24.2293 65.5 24.2293C74.3318 24.2293 81.4978 31.2936 81.4978 40C81.4978 48.7064 74.3318 55.7707 65.5 55.7707C56.6682 55.7707 49.5022 48.7064 49.5022 40Z" fill="#C4F601"/>
</svg>
